<svg width="20" height="20" viewBox="0 0 20 20" fill="none" xmlns="http://www.w3.org/2000/svg">
<path fill-rule="evenodd" clip-rule="evenodd" d="M10.7419 4.35664C10.5057 4.60938 10.5065 5.01828 10.7437 5.26994L14.5931 9.35411H3.93906L3.85682 9.36C3.56101 9.40276 3.33301 9.67296 3.33301 9.99991C3.33301 10.3566 3.60435 10.6457 3.93906 10.6457H14.5918L10.7437 14.7298L10.6848 14.8021C10.5083 15.0545 10.5272 15.4133 10.7419 15.6431C10.9781 15.8958 11.3618 15.8966 11.599 15.645L16.4736 10.4721C16.587 10.3593 16.6597 10.2006 16.6658 10.0238C16.6719 9.85005 16.6126 9.67418 16.4878 9.54177L11.5989 4.35467L11.5308 4.2923C11.2932 4.10526 10.9566 4.12687 10.7419 4.35664Z" fill="#00C1CD"/>
</svg>
