<svg width="24" height="24" viewBox="0 0 24 24" fill="none" xmlns="http://www.w3.org/2000/svg">
<path fill-rule="evenodd" clip-rule="evenodd" d="M11.1094 5.22816C11.3928 5.53146 11.3918 6.02214 11.1072 6.32413L6.48795 11.2251H19.2727L19.3714 11.2322C19.7264 11.2835 20 11.6078 20 12.0001C20 12.4281 19.6744 12.7751 19.2727 12.7751H6.48945L11.1072 17.6759L11.1778 17.7627C11.3896 18.0656 11.367 18.4962 11.1093 18.7719C10.8259 19.0752 10.3654 19.0762 10.0808 18.7742L4.23131 12.5667C4.0952 12.4313 4.00792 12.2409 4.00068 12.0288C3.99333 11.8203 4.06453 11.6092 4.21428 11.4503L10.0809 5.2258L10.1626 5.15096C10.4478 4.9265 10.8517 4.95244 11.1094 5.22816Z" fill="#303030"/>
</svg>
