<svg width="82" height="73" viewBox="0 0 82 73" fill="none" xmlns="http://www.w3.org/2000/svg">
<g filter="url(#filter0_d_140_581)">
<rect x="25" y="8" width="32" height="32" rx="16" fill="white"/>
<path fill-rule="evenodd" clip-rule="evenodd" d="M40.973 14.8887C39.5496 14.8887 38.3668 14.9394 37.4073 15.1358C36.4357 15.3346 35.635 15.6941 35.0334 16.3531C34.4389 17.0044 34.1082 17.873 33.9186 18.9501C33.7293 20.0253 33.6699 21.3752 33.6699 23.0478C33.6699 23.6933 33.6688 24.2994 33.6678 24.8679C33.6629 27.5565 33.6596 29.4049 33.7808 30.6104C33.8531 31.3296 33.9779 31.9402 34.2521 32.3787C34.3996 32.6145 34.5954 32.8099 34.8498 32.94C35.0995 33.0678 35.3633 33.1109 35.6157 33.1109C36.1924 33.1109 36.7516 32.7937 37.2029 32.48C37.6435 32.1739 38.1074 31.7775 38.546 31.4026L38.6498 31.314C39.1342 30.9005 39.5891 30.5188 40.0161 30.2385C40.4589 29.9478 40.7702 29.8362 40.973 29.8362C41.1758 29.8362 41.4871 29.9478 41.93 30.2385C42.3569 30.5188 42.8118 30.9005 43.2962 31.314L43.4 31.4026L43.4 31.4027C43.8387 31.7775 44.3025 32.1739 44.7431 32.48C45.1945 32.7937 45.7537 33.1109 46.3303 33.1109C46.5828 33.1109 46.8465 33.0678 47.0963 32.94C47.3506 32.8099 47.5465 32.6145 47.6939 32.3787C47.9682 31.9402 48.0929 31.3296 48.1652 30.6104C48.2864 29.4049 48.2831 27.5565 48.2782 24.8679V24.8679C48.2772 24.2994 48.2761 23.6933 48.2761 23.0478C48.2761 21.3752 48.2167 20.0253 48.0275 18.9501C47.8379 17.873 47.5071 17.0044 46.9126 16.3531C46.311 15.6941 45.5103 15.3346 44.5387 15.1358C43.5792 14.9394 42.3965 14.8887 40.973 14.8887ZM35.0032 23.0478C35.0032 21.3884 35.0637 20.1357 35.2317 19.1813C35.3994 18.2288 35.6632 17.6409 36.0182 17.252C36.366 16.8709 36.8696 16.6068 37.6746 16.442C38.4917 16.2748 39.5578 16.222 40.973 16.222C42.3882 16.222 43.4543 16.2748 44.2714 16.442C45.0764 16.6068 45.58 16.8709 45.9279 17.252C46.2828 17.6409 46.5467 18.2288 46.7143 19.1813C46.8823 20.1357 46.9428 21.3884 46.9428 23.0478C46.9428 23.709 46.9438 24.3249 46.9448 24.8984C46.9494 27.588 46.9523 29.3455 46.8386 30.477C46.7685 31.1743 46.6621 31.514 46.5635 31.6717C46.5245 31.7339 46.4986 31.7481 46.489 31.753C46.4748 31.7602 46.4326 31.7776 46.3303 31.7776C46.1981 31.7776 45.9362 31.6855 45.5039 31.3851C45.1207 31.1188 44.7061 30.7647 44.2509 30.3759L44.1618 30.2998C43.6871 29.8946 43.17 29.4576 42.6617 29.1239C42.1693 28.8007 41.5822 28.5029 40.973 28.5029C40.3638 28.5029 39.7767 28.8007 39.2843 29.1239C38.776 29.4576 38.2589 29.8946 37.7842 30.2998L37.6951 30.3759L37.695 30.376C37.2399 30.7647 36.8253 31.1188 36.4421 31.3851C36.0098 31.6855 35.7479 31.7776 35.6157 31.7776C35.5134 31.7776 35.4712 31.7602 35.457 31.753C35.4475 31.7481 35.4215 31.7339 35.3825 31.6717C35.284 31.514 35.1776 31.1743 35.1074 30.477C34.9937 29.3456 34.9967 27.588 35.0012 24.8984C35.0022 24.3249 35.0032 23.709 35.0032 23.0478ZM37.9261 20.86C37.5579 20.86 37.2594 21.1584 37.2594 21.5266C37.2594 21.8948 37.5579 22.1933 37.9261 22.1933H44.0194C44.3876 22.1933 44.6861 21.8948 44.6861 21.5266C44.6861 21.1584 44.3876 20.86 44.0194 20.86H37.9261Z" fill="#303030"/>
</g>
<defs>
<filter id="filter0_d_140_581" x="0" y="-9" width="82" height="82" filterUnits="userSpaceOnUse" color-interpolation-filters="sRGB">
<feFlood flood-opacity="0" result="BackgroundImageFix"/>
<feColorMatrix in="SourceAlpha" type="matrix" values="0 0 0 0 0 0 0 0 0 0 0 0 0 0 0 0 0 0 127 0" result="hardAlpha"/>
<feOffset dy="8"/>
<feGaussianBlur stdDeviation="12.5"/>
<feComposite in2="hardAlpha" operator="out"/>
<feColorMatrix type="matrix" values="0 0 0 0 0.12549 0 0 0 0 0.12549 0 0 0 0 0.12549 0 0 0 0.15 0"/>
<feBlend mode="normal" in2="BackgroundImageFix" result="effect1_dropShadow_140_581"/>
<feBlend mode="normal" in="SourceGraphic" in2="effect1_dropShadow_140_581" result="shape"/>
</filter>
</defs>
</svg>
