<svg width="24" height="24" viewBox="0 0 24 24" fill="none" xmlns="http://www.w3.org/2000/svg">
<path fill-rule="evenodd" clip-rule="evenodd" d="M11.9958 1.76465C9.52115 1.76465 7.72133 2.89699 6.55988 4.39438C5.41674 5.86817 4.88489 7.69924 4.88489 9.18417C4.88489 9.61041 4.89784 9.92686 4.90767 10.167L4.90767 10.1671C4.90969 10.2164 4.91158 10.2625 4.91319 10.3057C4.92286 10.564 4.9209 10.688 4.90103 10.811C4.85586 11.0905 4.71284 11.435 4.14143 12.6943C4.13574 12.7068 4.13039 12.7195 4.12539 12.7324C3.71229 13.7948 3.80439 14.7722 4.29527 15.6005C4.76369 16.3909 5.5512 16.9729 6.40247 17.3976C8.10478 18.2468 10.3554 18.6123 11.9958 18.6123C13.6358 18.6123 15.8862 18.2468 17.5885 17.3976C18.4398 16.9729 19.2273 16.3909 19.6958 15.6006C20.1868 14.7724 20.2792 13.795 19.8663 12.7325C19.8613 12.7196 19.856 12.7069 19.8502 12.6943C19.2788 11.435 19.1358 11.0905 19.0906 10.811C19.0708 10.688 19.0688 10.564 19.0785 10.3057C19.0801 10.2625 19.082 10.2163 19.084 10.167C19.0938 9.92685 19.1068 9.61041 19.1068 9.18417C19.1068 7.69916 18.5747 5.86809 17.4314 4.39435C16.2699 2.89703 14.4701 1.76465 11.9958 1.76465ZM6.38489 9.18417C6.38489 8.01482 6.81637 6.51113 7.74513 5.31372C8.65559 4.13992 10.0362 3.26465 11.9958 3.26465C13.9549 3.26465 15.3356 4.13989 16.2462 5.31376C17.1751 6.5112 17.6068 8.0149 17.6068 9.18417C17.6068 9.57728 17.5952 9.86126 17.5855 10.1003C17.5834 10.152 17.5813 10.2015 17.5795 10.2496C17.5696 10.5155 17.5643 10.7686 17.6098 11.0502C17.6944 11.5733 17.9513 12.1395 18.4652 13.2721L18.4652 13.2721L18.4752 13.2941C18.7239 13.9467 18.644 14.4334 18.4055 14.8357C18.1424 15.2795 17.6381 15.6965 16.9189 16.0553C15.4802 16.773 13.4749 17.1123 11.9958 17.1123C10.5163 17.1123 8.5107 16.773 7.07207 16.0553C6.35286 15.6965 5.8487 15.2795 5.58569 14.8357C5.34736 14.4336 5.26752 13.9469 5.51641 13.2942L5.52643 13.2721C6.0404 12.1395 6.29732 11.5733 6.38183 11.0502C6.42733 10.7686 6.42209 10.5155 6.41214 10.2496C6.41035 10.2016 6.40833 10.1523 6.40623 10.1008L6.40622 10.1003C6.39647 9.86125 6.38489 9.57727 6.38489 9.18417ZM10.245 20.013C9.96909 19.7041 9.49497 19.6774 9.18605 19.9533C8.87713 20.2292 8.85039 20.7034 9.12633 21.0123C10.7341 22.8122 13.275 22.7883 14.8645 21.0129C15.1407 20.7043 15.1145 20.2301 14.8059 19.9539C14.4973 19.6776 14.0232 19.7038 13.7469 20.0124C12.7478 21.1284 11.2506 21.1388 10.245 20.013Z" fill="#C1C1C1"/>
</svg>
