<svg width="28" height="28" viewBox="0 0 28 28" fill="none" xmlns="http://www.w3.org/2000/svg">
<path d="M0 14C0 10.2774 0 8.41616 0.489435 6.90983C1.47861 3.86545 3.86545 1.47861 6.90983 0.489435C8.41616 0 10.2774 0 14 0C17.7226 0 19.5838 0 21.0902 0.489435C24.1346 1.47861 26.5214 3.86545 27.5106 6.90983C28 8.41616 28 10.2774 28 14C28 17.7226 28 19.5838 27.5106 21.0902C26.5214 24.1346 24.1346 26.5214 21.0902 27.5106C19.5838 28 17.7226 28 14 28C10.2774 28 8.41616 28 6.90983 27.5106C3.86545 26.5214 1.47861 24.1346 0.489435 21.0902C0 19.5838 0 17.7226 0 14Z" fill="#CEECD7"/>
<path fill-rule="evenodd" clip-rule="evenodd" d="M11.9502 16.9268H15.5409C15.8116 16.9268 16.036 16.7002 16.036 16.4268C16.036 16.1535 15.8116 15.9335 15.5409 15.9335H11.9502C11.6795 15.9335 11.4551 16.1535 11.4551 16.4268C11.4551 16.7002 11.6795 16.9268 11.9502 16.9268ZM14.1812 12.6002H11.9502C11.6795 12.6002 11.4551 12.8268 11.4551 13.1002C11.4551 13.3735 11.6795 13.5935 11.9502 13.5935H14.1812C14.4518 13.5935 14.6762 13.3735 14.6762 13.1002C14.6762 12.8268 14.4518 12.6002 14.1812 12.6002ZM18.8917 12.0172C19.0469 12.0154 19.2158 12.0135 19.3693 12.0135C19.5343 12.0135 19.6663 12.1468 19.6663 12.3135V17.6735C19.6663 19.3268 18.3396 20.6668 16.7026 20.6668H11.4485C9.73235 20.6668 8.33301 19.2602 8.33301 17.5268V10.3402C8.33301 8.68683 9.66634 7.3335 11.3099 7.3335H14.8347C15.0063 7.3335 15.1383 7.4735 15.1383 7.64016V9.78683C15.1383 11.0068 16.135 12.0068 17.3429 12.0135C17.6251 12.0135 17.8738 12.0156 18.0915 12.0175C18.2608 12.0189 18.4114 12.0202 18.5442 12.0202C18.6382 12.0202 18.76 12.0188 18.8917 12.0172ZM19.0737 11.0442C18.5312 11.0462 17.8916 11.0442 17.4315 11.0395C16.7015 11.0395 16.1001 10.4322 16.1001 9.69483V7.9375C16.1001 7.65016 16.4454 7.5075 16.6427 7.71483C16.9999 8.08999 17.4909 8.60569 17.9795 9.11902C18.4669 9.63101 18.9521 10.1406 19.3001 10.5062C19.4929 10.7082 19.3516 11.0435 19.0737 11.0442Z" fill="#31B057"/>
</svg>
