<svg width="24" height="24" viewBox="0 0 24 24" fill="none" xmlns="http://www.w3.org/2000/svg">
<path fill-rule="evenodd" clip-rule="evenodd" d="M11.8372 1.65039C9.00073 1.65039 6.70066 3.95004 6.69998 6.78639L6.69998 6.78766H7.44998L6.69998 6.78512L6.69998 6.78639C6.69108 9.61448 8.97538 11.9144 11.8038 11.924L11.8064 11.924H11.8372C14.6742 11.924 16.9736 9.6246 16.9736 6.78766C16.9736 3.95093 14.6744 1.65039 11.8372 1.65039ZM8.19998 6.78766C8.19998 4.77915 9.82874 3.15039 11.8372 3.15039C13.8456 3.15039 15.4736 4.77895 15.4736 6.78766C15.4736 8.79618 13.8449 10.424 11.8364 10.424H11.8076C9.80792 10.4165 8.1932 8.79018 8.19998 6.79021V6.78766ZM5.75 18.787C5.75 17.9897 6.30533 17.0849 7.44188 16.3389C8.55835 15.6061 10.1244 15.1123 11.8445 15.1123C13.5556 15.1123 15.1226 15.6014 16.2421 16.3301C17.3822 17.0723 17.9391 17.9721 17.9391 18.7664C17.9391 19.1516 17.8152 19.4381 17.5916 19.6792C17.3521 19.9376 16.9676 20.1741 16.411 20.3689C15.2884 20.7618 13.6825 20.9123 11.8445 20.9123C10.0152 20.9123 8.40853 20.767 7.28249 20.3785C6.72404 20.1858 6.3382 19.9512 6.09786 19.6944C5.87403 19.4553 5.75 19.1709 5.75 18.787ZM11.8445 13.6123C9.85282 13.6123 7.99665 14.1805 6.6188 15.0849C5.26103 15.976 4.25 17.2835 4.25 18.787C4.25 19.5535 4.52006 20.2038 5.00274 20.7194C5.4689 21.2175 6.10198 21.5579 6.79319 21.7964C8.16647 22.2703 9.98208 22.4123 11.8445 22.4123C13.7184 22.4123 15.5348 22.2648 16.9065 21.7847C17.597 21.543 18.2278 21.1993 18.6916 20.6991C19.1714 20.1816 19.4391 19.5312 19.4391 18.7664C19.4391 17.26 18.4196 15.9578 17.0604 15.073C15.6806 14.1748 13.8253 13.6123 11.8445 13.6123Z" fill="#C1C1C1"/>
</svg>
